<mxfile host="app.diagrams.net" agent="Mozilla/5.0 (Windows NT 10.0; Win64; x64) AppleWebKit/537.36 (KHTML, like Gecko) Chrome/134.0.0.0 Safari/537.36" version="26.1.0">
  <diagram id="C5RBs43oDa-KdzZeNtuy" name="Page-1">
    <mxGraphModel dx="875" dy="583" grid="1" gridSize="10" guides="1" tooltips="1" connect="1" arrows="1" fold="1" page="1" pageScale="1" pageWidth="827" pageHeight="1169" math="0" shadow="0">
      <root>
        <mxCell id="WIyWlLk6GJQsqaUBKTNV-0" />
        <mxCell id="WIyWlLk6GJQsqaUBKTNV-1" parent="WIyWlLk6GJQsqaUBKTNV-0" />
        <mxCell id="Q8SVs9HketV9pAnV7nWB-0" value="Supabase&lt;div&gt;&lt;b&gt;(Websockets Communications)&lt;/b&gt;&lt;/div&gt;" style="ellipse;whiteSpace=wrap;html=1;" vertex="1" parent="WIyWlLk6GJQsqaUBKTNV-1">
          <mxGeometry x="210" y="80" width="229" height="120" as="geometry" />
        </mxCell>
        <mxCell id="Q8SVs9HketV9pAnV7nWB-4" style="edgeStyle=orthogonalEdgeStyle;rounded=0;orthogonalLoop=1;jettySize=auto;html=1;entryX=0;entryY=0.5;entryDx=0;entryDy=0;" edge="1" parent="WIyWlLk6GJQsqaUBKTNV-1" source="Q8SVs9HketV9pAnV7nWB-1" target="Q8SVs9HketV9pAnV7nWB-0">
          <mxGeometry relative="1" as="geometry">
            <Array as="points">
              <mxPoint x="100" y="140" />
            </Array>
          </mxGeometry>
        </mxCell>
        <mxCell id="Q8SVs9HketV9pAnV7nWB-1" value="iOS Client 1" style="rounded=1;whiteSpace=wrap;html=1;arcSize=0;" vertex="1" parent="WIyWlLk6GJQsqaUBKTNV-1">
          <mxGeometry x="50" y="210" width="100" height="40" as="geometry" />
        </mxCell>
        <mxCell id="Q8SVs9HketV9pAnV7nWB-6" style="edgeStyle=orthogonalEdgeStyle;rounded=0;orthogonalLoop=1;jettySize=auto;html=1;entryX=1;entryY=0.5;entryDx=0;entryDy=0;" edge="1" parent="WIyWlLk6GJQsqaUBKTNV-1" source="Q8SVs9HketV9pAnV7nWB-5" target="Q8SVs9HketV9pAnV7nWB-0">
          <mxGeometry relative="1" as="geometry">
            <mxPoint x="560" y="120" as="targetPoint" />
            <Array as="points">
              <mxPoint x="560" y="140" />
            </Array>
          </mxGeometry>
        </mxCell>
        <mxCell id="Q8SVs9HketV9pAnV7nWB-5" value="iOS Client 2" style="rounded=1;whiteSpace=wrap;html=1;arcSize=0;" vertex="1" parent="WIyWlLk6GJQsqaUBKTNV-1">
          <mxGeometry x="510" y="210" width="100" height="40" as="geometry" />
        </mxCell>
        <mxCell id="Q8SVs9HketV9pAnV7nWB-7" style="edgeStyle=orthogonalEdgeStyle;rounded=0;orthogonalLoop=1;jettySize=auto;html=1;entryX=0.683;entryY=0.017;entryDx=0;entryDy=0;entryPerimeter=0;" edge="1" parent="WIyWlLk6GJQsqaUBKTNV-1" source="Q8SVs9HketV9pAnV7nWB-0" target="Q8SVs9HketV9pAnV7nWB-1">
          <mxGeometry relative="1" as="geometry">
            <Array as="points">
              <mxPoint x="118" y="170" />
            </Array>
          </mxGeometry>
        </mxCell>
        <mxCell id="Q8SVs9HketV9pAnV7nWB-8" style="edgeStyle=orthogonalEdgeStyle;rounded=0;orthogonalLoop=1;jettySize=auto;html=1;entryX=0.343;entryY=-0.017;entryDx=0;entryDy=0;entryPerimeter=0;" edge="1" parent="WIyWlLk6GJQsqaUBKTNV-1" source="Q8SVs9HketV9pAnV7nWB-0" target="Q8SVs9HketV9pAnV7nWB-5">
          <mxGeometry relative="1" as="geometry">
            <Array as="points">
              <mxPoint x="544" y="170" />
            </Array>
          </mxGeometry>
        </mxCell>
      </root>
    </mxGraphModel>
  </diagram>
</mxfile>
